<svg xmlns="http://www.w3.org/2000/svg" width="1200" height="630" viewBox="0 0 1200 630">
  <defs>
    <radialGradient id="glow" cx="22%" cy="45%" r="58%">
      <stop offset="0%" stop-color="#e8540a" stop-opacity="0.18"/>
      <stop offset="100%" stop-color="#0e0c0a" stop-opacity="0"/>
    </radialGradient>
    <pattern id="dots" width="32" height="32" patternUnits="userSpaceOnUse">
      <circle cx="1" cy="1" r="1.2" fill="white" opacity="0.035"/>
    </pattern>
  </defs>

  <!-- Background -->
  <rect width="1200" height="630" fill="#0e0c0a"/>
  <rect width="1200" height="630" fill="url(#glow)"/>
  <rect width="1200" height="630" fill="url(#dots)"/>

  <!-- Top coral accent -->
  <rect x="80" y="0" width="120" height="4" rx="2" fill="#e8540a"/>

  <!--
    ── Logo mark ──
    Source: favicon.svg which has a 32×32 viewBox and these exact paths:
      bottom: M5 23.5 Q10.5 19.5 16 23.5 Q21.5 27.5 27 23.5  (stroke 3.5)
      middle: M7 17   Q11.5 13   16 17   Q20.5 21   25 17     (stroke 3)
      top:    M10 10.5 Q13 7.5   16 10.5  Q19 13.5  22 10.5   (stroke 2.5)

    Box here is 64×64 at (80, 52). Scale = 64/32 = exactly 2.
    Every coordinate: x_new = x_orig × 2 + 80, y_new = y_orig × 2 + 52.

      bottom: M(90,99) Q(101,91) (112,99) Q(123,107) (134,99)
      middle: M(94,86) Q(103,78) (112,86) Q(121,94)  (130,86)
      top:    M(100,73) Q(106,67) (112,73) Q(118,79)  (124,73)
    Stroke widths ×2: 7, 6, 5.
  -->
  <rect x="80" y="52" width="64" height="64" rx="14" fill="#e8540a"/>
  <path d="M90 99 Q101 91 112 99 Q123 107 134 99"  stroke="white" stroke-width="7" stroke-linecap="round" fill="none"/>
  <path d="M94 86 Q103 78 112 86 Q121 94  130 86"  stroke="white" stroke-width="6" stroke-linecap="round" fill="none" opacity="0.75"/>
  <path d="M100 73 Q106 67 112 73 Q118 79  124 73"  stroke="white" stroke-width="5" stroke-linecap="round" fill="none" opacity="0.45"/>

  <!-- Logo wordmark -->
  <text x="158" y="97" font-family="-apple-system,BlinkMacSystemFont,'Segoe UI',sans-serif" font-size="38" font-weight="700" fill="white" letter-spacing="-1">cove</text>

  <!-- Headline -->
  <text x="80" y="268" font-family="-apple-system,BlinkMacSystemFont,'Segoe UI',sans-serif" font-size="86" font-weight="800" fill="white"    letter-spacing="-3">Stop losing jobs</text>
  <text x="80" y="366" font-family="-apple-system,BlinkMacSystemFont,'Segoe UI',sans-serif" font-size="86" font-weight="800" fill="#e8540a"   letter-spacing="-3">while you're working.</text>

  <!-- Sub -->
  <text x="80" y="428" font-family="-apple-system,BlinkMacSystemFont,'Segoe UI',sans-serif" font-size="26" fill="#78716c" letter-spacing="-0.2">Texts leads back in 10 seconds · Qualifies them · Sends you a ready-to-call summary.</text>

  <!-- Badges -->
  <rect x="80"  y="468" width="258" height="52" rx="26" fill="#1c1917"/>
  <circle cx="110" cy="494" r="8" fill="#e8540a"/>
  <text x="128" y="500" font-family="-apple-system,BlinkMacSystemFont,'Segoe UI',sans-serif" font-size="18" font-weight="600" fill="white">7-day free trial</text>

  <rect x="354" y="468" width="238" height="52" rx="26" fill="#1c1917"/>
  <circle cx="384" cy="494" r="8" fill="#16a34a"/>
  <text x="402" y="500" font-family="-apple-system,BlinkMacSystemFont,'Segoe UI',sans-serif" font-size="18" font-weight="600" fill="white">2-minute setup</text>

  <rect x="608" y="468" width="226" height="52" rx="26" fill="#1c1917"/>
  <circle cx="638" cy="494" r="8" fill="#0891b2"/>
  <text x="656" y="500" font-family="-apple-system,BlinkMacSystemFont,'Segoe UI',sans-serif" font-size="18" font-weight="600" fill="white">Cancel anytime</text>

  <!-- Domain -->
  <text x="1120" y="598" font-family="-apple-system,BlinkMacSystemFont,'Segoe UI',sans-serif" font-size="20" fill="#3f3f46" text-anchor="end" letter-spacing="-0.3">usecove.app</text>
</svg>
